<?xml version="1.0" standalone="no"?>
<!DOCTYPE svg PUBLIC "-//W3C//DTD SVG 20010904//EN"
 "http://www.w3.org/TR/2001/REC-SVG-20010904/DTD/svg10.dtd">
<svg version="1.0" xmlns="http://www.w3.org/2000/svg"
 width="512.000000pt" height="512.000000pt" viewBox="0 0 512.000000 512.000000"
 preserveAspectRatio="xMidYMid meet">
<metadata>
Created by potrace 1.16, written by Peter Selinger 2001-2019
</metadata>
<g transform="translate(0.000000,512.000000) scale(0.100000,-0.100000)"
fill="#000000" stroke="none">
<path d="M2057 4919 c-93 -22 -178 -89 -228 -181 l-34 -63 -3 -161 -4 -161
-39 -17 c-48 -21 -89 -79 -96 -135 -11 -83 48 -172 123 -187 22 -4 33 -15 45
-43 l16 -38 -63 -6 c-124 -10 -148 -29 -397 -311 -122 -138 -256 -292 -297
-341 -41 -49 -119 -135 -173 -191 -53 -56 -97 -104 -97 -108 0 -3 -59 -204
-130 -446 l-131 -442 -125 -179 c-126 -182 -144 -212 -144 -252 -1 -16 -14
-28 -50 -45 -68 -32 -137 -104 -174 -182 -29 -60 -31 -73 -31 -175 0 -104 2
-114 33 -177 17 -36 50 -84 73 -107 49 -52 197 -150 294 -196 64 -30 76 -40
95 -79 25 -53 77 -101 138 -128 92 -41 234 -18 304 49 l27 26 263 -37 c1669
-233 1753 -245 1763 -263 6 -10 33 -41 62 -70 40 -40 65 -56 109 -69 101 -29
201 -7 282 61 l31 26 111 -16 c216 -30 421 -16 527 35 71 35 116 82 150 157
34 73 39 142 19 257 -20 117 -46 177 -102 233 -77 77 -159 103 -323 103 -110
0 -232 11 -456 40 -210 28 -195 22 -195 75 0 24 -11 74 -25 111 -31 82 -31 84
-1 84 13 0 27 7 30 16 8 22 96 1189 97 1288 1 68 -3 87 -31 142 -68 139 -227
206 -372 157 l-58 -20 0 92 c0 51 3 119 6 151 l6 60 281 -55 280 -55 17 22
c10 11 20 43 24 70 l6 49 158 -29 c86 -15 191 -31 233 -34 94 -8 100 -6 363
155 l199 121 122 0 c98 0 146 5 232 26 59 14 118 32 130 40 48 30 36 123 -18
142 -15 6 0 14 63 32 103 30 128 52 128 115 0 35 -6 52 -25 70 -30 31 -69 32
-299 10 l-160 -16 -301 -129 c-166 -72 -311 -130 -322 -130 -29 0 -418 91
-795 185 -291 73 -348 85 -421 85 l-85 0 15 39 c13 32 21 40 49 46 20 3 49 21
69 40 59 60 68 149 23 223 l-20 32 44 0 c55 0 86 17 115 59 29 43 29 89 0 132
-33 48 -60 59 -159 59 l-88 0 0 29 c0 50 -36 149 -71 194 -47 62 -109 106
-180 128 -50 16 -90 19 -227 18 -92 -1 -184 -5 -205 -10z m434 -96 c59 -26
116 -84 142 -142 16 -36 22 -73 25 -168 l4 -123 -110 0 -110 0 -4 60 c-7 95
-63 140 -175 140 -84 -1 -139 -28 -163 -82 -11 -24 -20 -60 -20 -80 l0 -38
-105 0 -105 0 0 114 c0 155 25 220 107 283 70 53 121 64 303 60 142 -2 171 -6
211 -24z m-141 -333 c13 -13 20 -33 20 -60 l0 -40 -105 0 -105 0 0 42 c0 63
19 78 102 78 55 0 72 -4 88 -20z m564 -32 c13 -19 14 -25 2 -43 -12 -17 -24
-20 -97 -20 l-84 0 -3 43 -3 42 85 0 c76 0 86 -2 100 -22z m-249 -165 c10 -15
26 -23 44 -23 17 0 39 -10 55 -26 57 -57 20 -149 -62 -156 -39 -3 -38 -3 -84
-108 -30 -70 -109 -149 -185 -186 -77 -37 -204 -45 -288 -19 -114 36 -211 130
-252 243 -16 45 -26 59 -47 65 -14 4 -38 10 -53 15 -18 4 -34 20 -46 44 -16
33 -17 40 -3 72 15 36 34 49 90 61 15 3 30 14 33 23 4 17 30 18 393 18 l390
-1 15 -22z m2355 -437 c0 -14 -26 -23 -230 -84 -30 -9 -61 -20 -67 -25 -25
-19 -14 -52 30 -85 35 -28 47 -32 77 -27 74 14 12 -13 -78 -34 -68 -15 -127
-21 -216 -21 l-122 0 -185 -112 c-249 -151 -280 -168 -309 -168 -33 0 -410 67
-417 74 -8 7 37 296 46 296 3 0 108 -23 233 -51 l227 -52 318 137 318 136 140
14 c196 19 235 19 235 2z m-3077 -51 c186 -164 444 -165 637 -4 l59 49 101 0
c100 0 211 -24 691 -150 l36 -10 -28 -177 c-15 -98 -30 -200 -34 -226 -6 -44
-9 -48 -28 -43 -12 2 -131 26 -264 52 l-243 47 7 146 c5 127 4 148 -10 159
-21 18 -56 6 -62 -21 -2 -12 -8 -186 -13 -387 -9 -362 -9 -365 -34 -415 -14
-27 -34 -76 -44 -107 l-18 -58 -392 0 -392 0 -4 103 c-2 84 -8 112 -29 158
-25 53 -86 126 -121 145 -16 9 -19 35 -23 254 -7 302 -10 327 -36 335 -11 4
-27 1 -36 -6 -13 -12 -14 -44 -8 -270 l7 -256 -93 1 c-83 1 -101 -3 -154 -27
-33 -15 -81 -49 -108 -75 l-47 -46 -85 84 c-47 47 -85 87 -85 91 0 20 553 641
590 663 46 27 77 34 148 35 62 1 65 0 115 -44z m-814 -809 l93 -94 -11 -51
c-6 -29 -11 -64 -11 -79 0 -19 -12 -38 -44 -67 -38 -35 -64 -83 -195 -356
l-151 -316 -9 -139 c-4 -76 -9 -119 -10 -94 -1 49 -14 70 -42 70 -9 0 -55 -50
-105 -115 -88 -114 -90 -115 -124 -110 -19 2 -64 5 -99 5 -54 0 -62 2 -57 16
4 10 64 101 135 203 l128 186 128 435 c70 239 134 446 143 460 18 29 122 140
131 140 4 0 48 -42 100 -94z m61 -690 l0 -314 -29 -10 c-48 -17 -112 -83 -142
-146 -39 -83 -51 -151 -47 -267 2 -73 0 -99 -9 -99 -17 0 -128 42 -240 92
l-93 40 36 47 c21 25 41 50 45 55 4 4 18 1 30 -8 31 -21 81 -20 110 3 25 20
38 94 38 231 l1 75 147 307 c82 169 149 308 151 308 1 0 2 -141 2 -314z m1384
-533 c-13 -137 -25 -268 -27 -292 -4 -37 -1 -47 20 -67 l25 -24 -32 -80 c-18
-44 -35 -80 -39 -80 -3 0 -192 25 -418 57 l-413 57 0 37 0 37 105 4 c80 2 108
7 115 18 6 9 10 137 10 298 l0 282 338 0 338 0 -22 -247z m-1237 127 c24 -10
59 -31 78 -47 56 -44 131 -163 160 -254 27 -86 45 -249 28 -249 -20 0 -429 60
-480 71 -49 10 -53 12 -60 47 -4 20 -8 82 -8 137 0 119 19 182 72 245 61 71
129 87 210 50z m-710 -388 c283 -131 405 -164 803 -217 199 -27 456 -63 1465
-205 670 -94 780 -107 980 -116 168 -7 209 -19 267 -76 47 -48 64 -87 83 -196
21 -123 11 -176 -50 -257 -63 -84 -229 -119 -463 -96 -174 17 -182 19 -173 42
4 11 29 37 56 57 141 107 148 321 14 435 -75 65 -177 83 -275 50 -64 -22 -147
-104 -165 -162 -8 -28 -22 -47 -39 -56 -36 -19 -96 -87 -115 -130 -8 -20 -17
-58 -21 -86 -4 -27 -11 -49 -17 -49 -6 0 -283 38 -616 85 -333 47 -768 108
-966 136 -198 28 -361 52 -363 54 -8 8 20 54 37 60 38 12 110 104 127 163 38
128 -25 269 -145 329 -52 26 -191 25 -245 -1 -55 -28 -105 -81 -131 -141 -16
-36 -35 -59 -65 -78 -48 -33 -98 -106 -106 -158 -11 -64 -15 -66 -90 -24 -167
92 -258 176 -294 271 -66 175 43 377 227 424 78 19 144 6 280 -58z m2388 -131
l70 -6 32 -90 c34 -97 39 -125 23 -141 -7 -7 -92 1 -265 26 -140 20 -257 38
-259 41 -2 2 13 46 33 97 l36 94 130 -7 c72 -4 162 -10 200 -14z"/>
<path d="M1977 4202 c-25 -28 -23 -116 3 -142 25 -25 41 -25 71 -1 20 16 24
29 24 74 0 31 -6 61 -14 70 -18 22 -64 21 -84 -1z"/>
<path d="M2466 4198 c-26 -36 -21 -104 9 -134 46 -46 95 -12 95 66 0 58 -22
90 -60 90 -18 0 -34 -8 -44 -22z"/>
</g>
</svg>
